<svg width="57" height="57" viewBox="0 0 57 57" fill="none" xmlns="http://www.w3.org/2000/svg">
<path fill-rule="evenodd" clip-rule="evenodd" d="M6.28582 37.4089C6.77032 41.3261 8.322 45.0691 10.7762 48.2389L5.76968 52.1181C2.61882 48.0489 0.623823 43.2292 0 38.1847L6.28582 37.4089ZM55.3935 25.7838C55.954 27.5001 56.3531 29.2798 56.5747 31.0753C56.7172 32.2628 56.7869 33.4249 56.7869 34.6314C56.7869 35.8348 56.7172 36.9969 56.5747 38.1781C55.9509 43.2289 53.9559 48.0486 50.805 52.1178L45.7985 48.2386C48.2527 45.0688 49.8044 41.3258 50.2889 37.4086C50.3997 36.4966 50.4536 35.5751 50.4536 34.6314C50.4536 33.6846 50.3997 32.7631 50.2889 31.8448C50.1147 30.4609 49.8107 29.0834 49.3769 27.7534L55.3935 25.7838ZM51.382 13.2643L55.8597 17.742L29.8708 43.7308L14.4365 28.2965L18.9142 23.8188L29.8708 34.7755L51.382 13.2643ZM5.76968 17.1419L10.7762 21.0211C8.322 24.1909 6.77032 27.9339 6.28582 31.8511L0 31.0753C0.623823 26.0308 2.61882 21.2111 5.76968 17.1419ZM24.7338 6.34453L25.5097 12.6304C21.5893 13.1117 17.8463 14.6665 14.6797 17.1207L10.7973 12.1142C14.8665 8.96339 19.683 6.96521 24.7338 6.34453ZM31.8427 6.34424C36.8904 6.96806 41.71 8.96306 45.776 12.1139L41.8937 17.1204C38.7302 14.6662 34.984 13.1114 31.0669 12.6301L31.8427 6.34424Z" fill="black"/>
</svg>
