<svg width="273" height="80" viewBox="0 0 273 80" fill="none" xmlns="http://www.w3.org/2000/svg">
<path d="M101.583 56.2947L103.766 57.0022L102.472 59.6226L99.6416 58.7316L98.5633 57.8145C97.8759 58.391 97.0604 58.8365 96.1101 59.1509C95.1531 59.4653 94.1827 59.6226 93.1987 59.6226C91.8508 59.6226 90.5636 59.3474 89.3437 58.8103C88.1374 58.2731 87.086 57.5459 86.1897 56.6353C85.2866 55.7117 84.5789 54.6373 84.06 53.4123C83.5545 52.1742 83.3052 50.8705 83.3052 49.5079C83.3052 48.1453 83.5545 46.8614 84.06 45.656C84.5789 44.4375 85.2866 43.3697 86.1897 42.4591C87.086 41.5355 88.1374 40.8083 89.3437 40.2842C90.5636 39.7471 91.8508 39.4719 93.1987 39.4719C94.5601 39.4719 95.8406 39.7471 97.0267 40.2842C98.2263 40.8083 99.2777 41.5355 100.181 42.4591C101.077 43.3697 101.785 44.4375 102.31 45.656C102.829 46.8614 103.092 48.1453 103.092 49.5079C103.092 50.6806 102.89 51.7877 102.499 52.8358C102.122 53.884 101.596 54.8273 100.936 55.6658L101.583 56.2947ZM97.8085 52.8882C98.4555 51.9121 98.779 50.7854 98.779 49.5079C98.779 48.6891 98.624 47.9226 98.3207 47.202C98.0309 46.4683 97.6333 45.8329 97.1345 45.2891C96.6493 44.752 96.063 44.3196 95.3823 44.0052C94.6949 43.6907 93.967 43.5335 93.1987 43.5335C92.4237 43.5335 91.6958 43.6907 91.0151 44.0052C90.3479 44.3196 89.7548 44.752 89.2359 45.2891C88.7304 45.8329 88.3261 46.4683 88.0228 47.202C87.733 47.9226 87.5915 48.6891 87.5915 49.5079C87.5915 50.3465 87.733 51.126 88.0228 51.8401C88.3261 52.541 88.7304 53.1634 89.2359 53.7005C89.7548 54.2443 90.3479 54.6701 91.0151 54.9845C91.6958 55.299 92.4237 55.4562 93.1987 55.4562C93.8996 55.4562 94.5735 55.3252 95.2205 55.0631L93.2796 53.4385L95.7597 51.0278L97.8085 52.8882Z" fill="white"/>
<path d="M117.393 39.7603H121.68V52.207C121.68 53.1897 121.471 54.133 121.059 55.037C120.642 55.9279 120.076 56.7141 119.361 57.3953C118.64 58.0635 117.804 58.6007 116.854 59.02C115.897 59.4196 114.873 59.6227 113.781 59.6227C112.703 59.6227 111.678 59.4196 110.708 59.02C109.751 58.6007 108.915 58.0635 108.201 57.3953C107.5 56.7141 106.94 55.9279 106.529 55.037C106.111 54.133 105.909 53.1897 105.909 52.207V39.7603H110.195V51.3947C110.195 51.9384 110.283 52.4559 110.465 52.9407C110.66 53.432 110.91 53.8709 111.22 54.2509C111.543 54.6178 111.928 54.9191 112.379 55.1418C112.824 55.3515 113.296 55.4563 113.781 55.4563C114.28 55.4563 114.751 55.3515 115.183 55.1418C115.627 54.9191 116.018 54.6178 116.342 54.2509C116.665 53.8709 116.915 53.432 117.097 52.9407C117.292 52.4559 117.393 51.9384 117.393 51.3947V39.7603Z" fill="white"/>
<path d="M131.465 39.7603V43.2716H129.983V55.7707H131.465V59.2558H124.16V55.7707H125.669V43.2716H124.16V39.7603H131.465Z" fill="white"/>
<path d="M143.557 55.4562C144.453 55.4562 145.336 55.2597 146.199 54.8535C147.075 54.4539 147.958 53.7726 148.841 52.8096L151.617 55.3776C150.499 56.7795 149.232 57.8342 147.816 58.5482C146.394 59.2623 144.932 59.6226 143.422 59.6226C142.054 59.6226 140.78 59.3474 139.594 58.8103C138.408 58.2731 137.37 57.5459 136.494 56.6353C135.611 55.7117 134.917 54.6373 134.418 53.4123C133.933 52.1938 133.69 50.8902 133.69 49.5079C133.69 48.1453 133.94 46.8614 134.445 45.656C134.964 44.4375 135.665 43.3697 136.548 42.4591C137.444 41.5355 138.496 40.8083 139.702 40.2842C140.902 39.7471 142.189 39.4719 143.557 39.4719C144.811 39.4719 146.01 39.7078 147.142 40.1794C148.288 40.638 149.414 41.3848 150.512 42.4329L148.032 45.394C147.237 44.6799 146.482 44.2017 145.768 43.9528C145.067 43.6907 144.325 43.5597 143.557 43.5597C142.782 43.5597 142.047 43.7169 141.346 44.0314C140.659 44.3458 140.066 44.7782 139.567 45.3153C139.062 45.8394 138.657 46.4683 138.354 47.202C138.064 47.9226 137.923 48.6891 137.923 49.5079C137.923 50.3465 138.064 51.126 138.354 51.8401C138.657 52.541 139.062 53.1634 139.567 53.7005C140.066 54.2443 140.659 54.6701 141.346 54.9845C142.047 55.299 142.782 55.4562 143.557 55.4562Z" fill="white"/>
<path d="M162.529 48.6695L172.206 59.2558H166.923L159.806 51.3161L158.081 53.0193V59.2558H153.767V39.7603H158.081V47.6476L166.141 39.7603H171.64L162.529 48.6695Z" fill="white"/>
<path d="M191.514 39.7603H195.585V59.2558H191.298V46.3898L186.527 52.8883H183.103L178.251 46.5732V59.2558H173.938V39.7603H178.035L184.828 48.7481L191.514 39.7603Z" fill="#DF5829"/>
<path d="M210.57 39.7603L218.954 59.2558H214.317L212.511 55.0632H203.992L202.186 59.2558H197.522L205.906 39.7603H210.57ZM210.894 51.2637L208.252 45.132L205.61 51.2637H210.894Z" fill="#DF5829"/>
<path d="M220.222 39.7603H234.753V43.5336H229.631V59.2558H225.344V43.5336H220.222V39.7603Z" fill="#DF5829"/>
<mask id="mask0_35_113" style="mask-type:luminance" maskUnits="userSpaceOnUse" x="62" y="15" width="38" height="44">
<path d="M62.6875 15.3635H99.7815V58.128H62.6875V15.3635Z" fill="white"/>
</mask>
<g mask="url(#mask0_35_113)">
<path d="M62.4787 15.3635L60.8881 16.903L58.4417 19.2875L56.0223 21.6328L47.8338 29.5987L44.8617 26.7032L54.4587 17.3812H39.5443L39.0793 17.8267L24.731 31.7736L32.1848 39.0255L37.4011 33.9551L40.38 36.844L42.6175 39.0255L44.8617 36.844L60.8881 21.2594V27.0373L53.9667 33.7782L50.8059 36.8375V36.844L45.5896 41.9144L59.0685 55.0097L60.8881 56.785L62.4787 58.3245L66.0371 54.8656L77.1168 44.0893L79.361 41.9144L64.0624 27.0438V21.2594L74.8725 31.7736L80.0889 36.844L82.3264 39.0255L84.5773 36.844L87.5494 33.9551L92.7658 39.0255L100.22 31.7736L85.8713 17.8267L85.4063 17.3812H70.4919L80.0889 26.7032L77.1168 29.5987L65.4575 18.2656L64.0624 16.903L62.4787 15.3635ZM40.8585 20.4601H46.8027L40.38 26.7032L45.5896 31.7736L42.6175 34.6691L37.4011 29.5987L32.1848 34.6691L29.2194 31.7736L40.8585 20.4601ZM78.1479 20.4601H84.0921L95.7379 31.7736L92.759 34.6691L87.5427 29.5987L82.3264 34.6691L79.361 31.7736L84.5773 26.7032L78.1479 20.4601ZM62.4787 29.8607L69.6562 36.844L69.6629 36.8506L62.4787 43.8666L55.2877 36.8506L62.4787 29.8607ZM60.6051 35.0491V36.5558H62.1552V35.0491H60.6051ZM62.7954 35.0491V36.5558H64.3455V35.0491H62.7954ZM60.6051 37.1716V38.6783H62.1552V37.1716H60.6051ZM62.7954 37.1716V38.6783H64.3455V37.1716H62.7954ZM53.0502 39.0255L60.8949 46.6835V52.4287L50.0781 41.9144L53.0502 39.0255ZM71.9004 39.0255L74.8725 41.9144L64.0624 52.4287V46.6835L71.9004 39.0255Z" fill="#DF5829"/>
</g>
<mask id="mask1_35_113" style="mask-type:luminance" maskUnits="userSpaceOnUse" x="25" y="15" width="38" height="44">
<path d="M25.5867 15.3635H62.6739V58.128H25.5867V15.3635Z" fill="white"/>
</mask>
<g mask="url(#mask1_35_113)">
<path d="M62.8895 15.3635L69.3392 21.6328L77.5276 29.5987L80.4997 26.7032L70.9028 17.3812H85.8239L86.2889 17.8267L100.631 31.7736L93.1767 39.0255L87.9603 33.9551L82.744 39.0255L80.5065 36.844L64.4733 21.2594V27.0373L71.4015 33.7782L74.5555 36.8375V36.844L79.7719 41.9144L66.293 55.0097L64.4733 56.785L62.8895 58.3245L61.299 56.785L59.3311 54.8656L46.0072 41.9144L48.2447 39.733L51.2235 36.844V36.8375L53.4678 34.6626L54.3776 33.7716L61.299 27.0438V21.2594L50.4889 31.7736L48.2514 33.9551L45.2726 36.844L43.0351 39.0255L40.7909 36.844L37.812 33.9551L32.6024 39.0255L25.1418 31.7736L39.4969 17.8267L39.9619 17.3812H54.8763L45.2726 26.7032L48.2514 29.5987L57.6732 20.4339L59.904 18.2656L61.299 16.903L62.8895 15.3635ZM84.503 20.4601H78.5588L84.9882 26.7032L79.7719 31.7736L82.744 34.6691L87.9603 29.5987L93.1767 34.6691L96.1488 31.7736L84.503 20.4601ZM47.2136 20.4601H41.2694L29.6303 31.7736L32.6024 34.6691L37.8188 29.5987L43.0351 34.6691L46.0072 31.7736L40.7909 26.7032L47.2136 20.4601ZM62.8895 29.8607L55.6985 36.8506L62.8895 43.8666L70.0738 36.8506L62.8895 29.8607ZM64.7564 35.0491V36.5558H63.2063V35.0491H64.7564ZM62.5728 35.0491V36.5558H61.016V35.0491H62.5728ZM64.7564 37.1716V38.6783H63.2063V37.1716H64.7564ZM62.5728 37.1716V38.6783H61.016V37.1716H62.5728ZM72.318 39.0255L64.4733 46.6835V52.4287L75.2834 41.9144L72.318 39.0255ZM53.461 39.0255L50.4889 41.9144L61.299 52.4287V46.6835L53.461 39.0255Z" fill="white"/>
</g>
</svg>
