<svg width="235" height="80" viewBox="0 0 235 80" fill="none" xmlns="http://www.w3.org/2000/svg">
<path d="M101.583 56.2946L103.766 57.0021L102.472 59.6225L99.6416 58.7316L98.5632 57.8145C97.8758 58.3909 97.0603 58.8364 96.1101 59.1508C95.1531 59.4653 94.1826 59.6225 93.1986 59.6225C91.8507 59.6225 90.5635 59.3474 89.3437 58.8102C88.1373 58.273 87.0859 57.5459 86.1896 56.6353C85.2865 55.7116 84.5789 54.6373 84.0599 53.4122C83.5545 52.1741 83.3051 50.8705 83.3051 49.5079C83.3051 48.1453 83.5545 46.8613 84.0599 45.6559C84.5789 44.4375 85.2865 43.3697 86.1896 42.4591C87.0859 41.5354 88.1373 40.8083 89.3437 40.2842C90.5635 39.747 91.8507 39.4719 93.1986 39.4719C94.56 39.4719 95.8405 39.747 97.0266 40.2842C98.2263 40.8083 99.2776 41.5354 100.181 42.4591C101.077 43.3697 101.785 44.4375 102.31 45.6559C102.829 46.8613 103.092 48.1453 103.092 49.5079C103.092 50.6805 102.89 51.7876 102.499 52.8358C102.122 53.8839 101.596 54.8272 100.936 55.6658L101.583 56.2946ZM97.8084 52.8882C98.4554 51.9121 98.7789 50.7853 98.7789 49.5079C98.7789 48.689 98.6239 47.9226 98.3206 47.202C98.0308 46.4683 97.6332 45.8328 97.1345 45.2891C96.6492 44.7519 96.0629 44.3195 95.3822 44.0051C94.6948 43.6907 93.9669 43.5334 93.1986 43.5334C92.4236 43.5334 91.6957 43.6907 91.0151 44.0051C90.3478 44.3195 89.7548 44.7519 89.2358 45.2891C88.7304 45.8328 88.326 46.4683 88.0227 47.202C87.7329 47.9226 87.5914 48.689 87.5914 49.5079C87.5914 50.3464 87.7329 51.126 88.0227 51.84C88.326 52.541 88.7304 53.1633 89.2358 53.7005C89.7548 54.2442 90.3478 54.67 91.0151 54.9845C91.6957 55.2989 92.4236 55.4561 93.1986 55.4561C93.8995 55.4561 94.5735 55.3251 95.2205 55.0631L93.2795 53.4384L95.7596 51.0277L97.8084 52.8882Z" fill="white"/>
<path d="M117.393 39.7602H121.679V52.207C121.679 53.1896 121.47 54.1329 121.059 55.037C120.642 55.9279 120.075 56.714 119.361 57.3953C118.64 58.0635 117.804 58.6007 116.854 59.0199C115.897 59.4195 114.873 59.6226 113.781 59.6226C112.702 59.6226 111.678 59.4195 110.708 59.0199C109.751 58.6007 108.915 58.0635 108.201 57.3953C107.5 56.714 106.94 55.9279 106.529 55.037C106.111 54.1329 105.909 53.1896 105.909 52.207V39.7602H110.195V51.3946C110.195 51.9384 110.283 52.4559 110.465 52.9407C110.66 53.432 110.91 53.8709 111.22 54.2508C111.543 54.6177 111.927 54.919 112.379 55.1418C112.824 55.3514 113.296 55.4562 113.781 55.4562C114.279 55.4562 114.751 55.3514 115.183 55.1418C115.627 54.919 116.018 54.6177 116.342 54.2508C116.665 53.8709 116.915 53.432 117.097 52.9407C117.292 52.4559 117.393 51.9384 117.393 51.3946V39.7602Z" fill="white"/>
<path d="M131.465 39.7602V43.2715H129.983V55.7707H131.465V59.2557H124.16V55.7707H125.669V43.2715H124.16V39.7602H131.465Z" fill="white"/>
<path d="M143.557 55.4561C144.453 55.4561 145.336 55.2596 146.199 54.8534C147.075 54.4538 147.958 53.7725 148.841 52.8095L151.617 55.3775C150.499 56.7794 149.232 57.8341 147.816 58.5482C146.394 59.2622 144.932 59.6225 143.422 59.6225C142.054 59.6225 140.78 59.3474 139.594 58.8102C138.408 58.273 137.37 57.5459 136.494 56.6353C135.611 55.7116 134.917 54.6373 134.418 53.4122C133.933 52.1938 133.69 50.8901 133.69 49.5079C133.69 48.1453 133.94 46.8613 134.445 45.6559C134.964 44.4375 135.665 43.3697 136.548 42.4591C137.444 41.5354 138.496 40.8083 139.702 40.2842C140.902 39.747 142.189 39.4719 143.557 39.4719C144.81 39.4719 146.01 39.7077 147.142 40.1794C148.288 40.6379 149.414 41.3847 150.512 42.4329L148.032 45.3939C147.237 44.6798 146.482 44.2016 145.767 43.9527C145.067 43.6907 144.325 43.5596 143.557 43.5596C142.782 43.5596 142.047 43.7169 141.346 44.0313C140.659 44.3458 140.066 44.7781 139.567 45.3153C139.062 45.8394 138.657 46.4683 138.354 47.202C138.064 47.9226 137.923 48.689 137.923 49.5079C137.923 50.3464 138.064 51.126 138.354 51.84C138.657 52.541 139.062 53.1633 139.567 53.7005C140.066 54.2442 140.659 54.67 141.346 54.9845C142.047 55.2989 142.782 55.4561 143.557 55.4561Z" fill="white"/>
<path d="M162.529 48.6695L172.206 59.2557H166.923L159.806 51.316L158.081 53.0193V59.2557H153.767V39.7602H158.081V47.6475L166.141 39.7602H171.64L162.529 48.6695Z" fill="white"/>
<path d="M191.514 39.7602H195.585V59.2557H191.298V46.3897L186.527 52.8882H183.103L178.251 46.5732V59.2557H173.938V39.7602H178.035L184.828 48.7481L191.514 39.7602Z" fill="#DF5829"/>
<path d="M210.57 39.7602L218.954 59.2557H214.317L212.511 55.0632H203.992L202.186 59.2557H197.522L205.906 39.7602H210.57ZM210.894 51.2636L208.252 45.132L205.61 51.2636H210.894Z" fill="#DF5829"/>
<path d="M220.222 39.7602H234.753V43.5335H229.631V59.2557H225.344V43.5335H220.222V39.7602Z" fill="#DF5829"/>
<mask id="mask0_64_114" style="mask-type:luminance" maskUnits="userSpaceOnUse" x="62" y="15" width="38" height="44">
<path d="M62.6874 15.3635H99.7814V58.128H62.6874V15.3635Z" fill="white"/>
</mask>
<g mask="url(#mask0_64_114)">
<path d="M62.4785 15.3635L60.888 16.903L58.4415 19.2875L56.0221 21.6328L47.8336 29.5987L44.8615 26.7032L54.4585 17.3812H39.5441L39.0791 17.8267L24.7308 31.7736L32.1846 39.0255L37.401 33.9551L40.3798 36.844L42.6173 39.0255L44.8615 36.844L60.888 21.2594V27.0373L53.9665 33.7782L50.8057 36.8375V36.844L45.5894 41.9144L59.0683 55.0097L60.888 56.785L62.4785 58.3245L66.0369 54.8656L77.1166 44.0893L79.3608 41.9144L64.0622 27.0438V21.2594L74.8723 31.7736L80.0887 36.844L82.3262 39.0255L84.5771 36.844L87.5492 33.9551L92.7656 39.0255L100.219 31.7736L85.8711 17.8267L85.4061 17.3812H70.4917L80.0887 26.7032L77.1166 29.5987L65.4573 18.2656L64.0622 16.903L62.4785 15.3635ZM40.8583 20.4601H46.8025L40.3798 26.7032L45.5894 31.7736L42.6173 34.6691L37.401 29.5987L32.1846 34.6691L29.2193 31.7736L40.8583 20.4601ZM78.1477 20.4601H84.0919L95.7377 31.7736L92.7589 34.6691L87.5425 29.5987L82.3262 34.6691L79.3608 31.7736L84.5771 26.7032L78.1477 20.4601ZM62.4785 29.8607L69.656 36.844L69.6627 36.8506L62.4785 43.8666L55.2875 36.8506L62.4785 29.8607ZM60.6049 35.0491V36.5558H62.155V35.0491H60.6049ZM62.7952 35.0491V36.5558H64.3453V35.0491H62.7952ZM60.6049 37.1716V38.6783H62.155V37.1716H60.6049ZM62.7952 37.1716V38.6783H64.3453V37.1716H62.7952ZM53.05 39.0255L60.8947 46.6835V52.4287L50.0779 41.9144L53.05 39.0255ZM71.9002 39.0255L74.8723 41.9144L64.0622 52.4287V46.6835L71.9002 39.0255Z" fill="#DF5829"/>
</g>
<mask id="mask1_64_114" style="mask-type:luminance" maskUnits="userSpaceOnUse" x="25" y="15" width="38" height="44">
<path d="M25.5867 15.3635H62.6739V58.128H25.5867V15.3635Z" fill="white"/>
</mask>
<g mask="url(#mask1_64_114)">
<path d="M62.8896 15.3635L69.3393 21.6328L77.5277 29.5987L80.4998 26.7032L70.9028 17.3812H85.824L86.289 17.8267L100.631 31.7736L93.1767 39.0255L87.9604 33.9551L82.744 39.0255L80.5065 36.844L64.4734 21.2594V27.0373L71.4015 33.7782L74.5556 36.8375V36.844L79.7719 41.9144L66.293 55.0097L64.4734 56.785L62.8896 58.3245L61.2991 56.785L59.3312 54.8656L46.0073 41.9144L48.2448 39.733L51.2236 36.844V36.8375L53.4678 34.6626L54.3777 33.7716L61.2991 27.0438V21.2594L50.489 31.7736L48.2515 33.9551L45.2727 36.844L43.0352 39.0255L40.7909 36.844L37.8121 33.9551L32.6025 39.0255L25.1419 31.7736L39.4969 17.8267L39.962 17.3812H54.8764L45.2727 26.7032L48.2515 29.5987L57.6733 20.4339L59.904 18.2656L61.2991 16.903L62.8896 15.3635ZM84.503 20.4601H78.5588L84.9883 26.7032L79.7719 31.7736L82.744 34.6691L87.9604 29.5987L93.1767 34.6691L96.1488 31.7736L84.503 20.4601ZM47.2136 20.4601H41.2694L29.6304 31.7736L32.6025 34.6691L37.8188 29.5987L43.0352 34.6691L46.0073 31.7736L40.7909 26.7032L47.2136 20.4601ZM62.8896 29.8607L55.6986 36.8506L62.8896 43.8666L70.0739 36.8506L62.8896 29.8607ZM64.7564 35.0491V36.5558H63.2064V35.0491H64.7564ZM62.5728 35.0491V36.5558H61.016V35.0491H62.5728ZM64.7564 37.1716V38.6783H63.2064V37.1716H64.7564ZM62.5728 37.1716V38.6783H61.016V37.1716H62.5728ZM72.3181 39.0255L64.4734 46.6835V52.4287L75.2835 41.9144L72.3181 39.0255ZM53.4611 39.0255L50.489 41.9144L61.2991 52.4287V46.6835L53.4611 39.0255Z" fill="white"/>
</g>
</svg>
