<svg width="219" height="93" viewBox="0 0 219 93" fill="none" xmlns="http://www.w3.org/2000/svg">
<path d="M86.0364 62.2785L87.5113 62.7702L86.6373 64.591L84.7254 63.9719L83.9971 63.3346C83.5328 63.7352 82.982 64.0448 82.3401 64.2633C81.6937 64.4817 81.0382 64.591 80.3736 64.591C79.4632 64.591 78.5938 64.3998 77.7698 64.0265C76.955 63.6533 76.2449 63.148 75.6395 62.5153C75.0295 61.8734 74.5515 61.1269 74.201 60.2756C73.8596 59.4153 73.6912 58.5094 73.6912 57.5626C73.6912 56.6157 73.8596 55.7235 74.201 54.886C74.5515 54.0393 75.0295 53.2973 75.6395 52.6645C76.2449 52.0227 76.955 51.5174 77.7698 51.1532C78.5938 50.78 79.4632 50.5888 80.3736 50.5888C81.2931 50.5888 82.158 50.78 82.9592 51.1532C83.7695 51.5174 84.4796 52.0227 85.0896 52.6645C85.695 53.2973 86.173 54.0393 86.528 54.886C86.8785 55.7235 87.0561 56.6157 87.0561 57.5626C87.0561 58.3774 86.9195 59.1467 86.6555 59.875C86.4006 60.6034 86.0455 61.2589 85.5994 61.8415L86.0364 62.2785ZM83.4872 59.9115C83.9242 59.2332 84.1427 58.4502 84.1427 57.5626C84.1427 56.9936 84.038 56.461 83.8332 55.9602C83.6375 55.4504 83.3689 55.0089 83.032 54.631C82.7043 54.2578 82.3083 53.9573 81.8485 53.7388C81.3842 53.5203 80.8926 53.4111 80.3736 53.4111C79.8501 53.4111 79.3585 53.5203 78.8987 53.7388C78.4481 53.9573 78.0475 54.2578 77.697 54.631C77.3556 55.0089 77.0825 55.4504 76.8776 55.9602C76.6819 56.461 76.5863 56.9936 76.5863 57.5626C76.5863 58.1452 76.6819 58.6869 76.8776 59.1831C77.0825 59.6702 77.3556 60.1026 77.697 60.4759C78.0475 60.8537 78.4481 61.1496 78.8987 61.3681C79.3585 61.5866 79.8501 61.6959 80.3736 61.6959C80.847 61.6959 81.3022 61.6048 81.7392 61.4227L80.4282 60.2938L82.1034 58.6187L83.4872 59.9115Z" fill="#2F3336"/>
<path d="M96.7155 50.7891H99.6106V59.438C99.6106 60.1208 99.4695 60.7763 99.1918 61.4045C98.9096 62.0236 98.5272 62.5699 98.0447 63.0433C97.5576 63.5076 96.9932 63.8809 96.3513 64.1722C95.7049 64.4499 95.013 64.591 94.2756 64.591C93.5472 64.591 92.8553 64.4499 92.1998 64.1722C91.5534 63.8809 90.989 63.5076 90.5064 63.0433C90.033 62.5699 89.6552 62.0236 89.3775 61.4045C89.0953 60.7763 88.9587 60.1208 88.9587 59.438V50.7891H91.8539V58.8736C91.8539 59.2514 91.913 59.611 92.0359 59.9479C92.168 60.2893 92.3364 60.5943 92.5458 60.8583C92.7643 61.1132 93.0238 61.3226 93.3287 61.4774C93.6292 61.623 93.9478 61.6959 94.2756 61.6959C94.6124 61.6959 94.9311 61.623 95.2224 61.4774C95.5228 61.3226 95.7869 61.1132 96.0054 60.8583C96.2239 60.5943 96.3923 60.2893 96.5152 59.9479C96.6472 59.611 96.7155 59.2514 96.7155 58.8736V50.7891Z" fill="#2F3336"/>
<path d="M106.22 50.7891V53.229H105.219V61.9144H106.22V64.3361H101.286V61.9144H102.305V53.229H101.286V50.7891H106.22Z" fill="#2F3336"/>
<path d="M114.387 61.6959C114.993 61.6959 115.589 61.5593 116.172 61.2771C116.764 60.9994 117.36 60.526 117.956 59.8568L119.832 61.6412C119.076 62.6154 118.22 63.3483 117.264 63.8445C116.304 64.3406 115.316 64.591 114.296 64.591C113.372 64.591 112.512 64.3998 111.711 64.0265C110.91 63.6533 110.209 63.148 109.617 62.5153C109.02 61.8734 108.552 61.1269 108.215 60.2756C107.887 59.4289 107.723 58.5231 107.723 57.5626C107.723 56.6157 107.892 55.7235 108.233 54.886C108.583 54.0393 109.057 53.2973 109.653 52.6645C110.259 52.0227 110.969 51.5174 111.784 51.1532C112.594 50.78 113.463 50.5888 114.387 50.5888C115.234 50.5888 116.044 50.7527 116.809 51.0804C117.583 51.3991 118.343 51.918 119.085 52.6463L117.41 54.7039C116.873 54.2077 116.363 53.8754 115.88 53.7024C115.407 53.5203 114.906 53.4293 114.387 53.4293C113.864 53.4293 113.368 53.5385 112.894 53.757C112.43 53.9755 112.029 54.276 111.693 54.6492C111.351 55.0134 111.078 55.4504 110.873 55.9602C110.677 56.461 110.582 56.9936 110.582 57.5626C110.582 58.1452 110.677 58.6869 110.873 59.1831C111.078 59.6702 111.351 60.1026 111.693 60.4759C112.029 60.8537 112.43 61.1496 112.894 61.3681C113.368 61.5866 113.864 61.6959 114.387 61.6959Z" fill="#2F3336"/>
<path d="M127.202 56.9799L133.738 64.3361H130.17L125.363 58.819L124.197 60.0025V64.3361H121.284V50.7891H124.197V56.2698L129.642 50.7891H133.356L127.202 56.9799Z" fill="#2F3336"/>
<path d="M146.779 50.7891H149.529V64.3361H146.634V55.3958L143.411 59.9115H141.098L137.821 55.5232V64.3361H134.907V50.7891H137.675L142.264 57.0345L146.779 50.7891Z" fill="#DF5829"/>
<path d="M159.651 50.7891L165.314 64.3361H162.182L160.962 61.4227H155.208L153.988 64.3361H150.838L156.501 50.7891H159.651ZM159.869 58.7825L158.085 54.5218L156.3 58.7825H159.869Z" fill="#DF5829"/>
<path d="M166.17 50.7891H175.984V53.4111H172.525V64.3361H169.63V53.4111H166.17V50.7891Z" fill="#DF5829"/>
<mask id="mask0_35_161" style="mask-type:luminance" maskUnits="userSpaceOnUse" x="59" y="33" width="26" height="31">
<path d="M59.7651 33.8365H84.8198V63.5525H59.7651V33.8365Z" fill="white"/>
</mask>
<g mask="url(#mask0_35_161)">
<path d="M59.6239 33.8365L58.5496 34.9062L56.8972 36.5632L55.263 38.1928L49.7322 43.7281L47.7248 41.7161L54.2069 35.2385H44.1332L43.8191 35.5481L34.1277 45.2394L39.1623 50.2786L42.6856 46.7553L44.6976 48.7628L46.2089 50.2786L47.7248 48.7628L58.5496 37.9333V41.9483L53.8746 46.6324L51.7397 48.7582V48.7628L48.2164 52.2861L57.3206 61.3857L58.5496 62.6193L59.6239 63.689L62.0274 61.2855L69.511 53.7974L71.0269 52.2861L60.6936 41.9528V37.9333L67.9952 45.2394L71.5185 48.7628L73.0298 50.2786L74.5502 48.7628L76.5577 46.7553L80.081 50.2786L85.1156 45.2394L75.4242 35.5481L75.1101 35.2385H65.0363L71.5185 41.7161L69.511 43.7281L61.6359 35.853L60.6936 34.9062L59.6239 33.8365ZM45.0208 37.378H49.0358L44.6976 41.7161L48.2164 45.2394L46.2089 47.2515L42.6856 43.7281L39.1623 47.2515L37.1594 45.2394L45.0208 37.378ZM70.2075 37.378H74.2224L82.0884 45.2394L80.0764 47.2515L76.5531 43.7281L73.0298 47.2515L71.0269 45.2394L74.5502 41.7161L70.2075 37.378ZM59.6239 43.9102L64.4719 48.7628L64.4764 48.7673L59.6239 53.6426L54.7668 48.7673L59.6239 43.9102ZM58.3584 47.5155V48.5625H59.4054V47.5155H58.3584ZM59.8379 47.5155V48.5625H60.8848V47.5155H59.8379ZM58.3584 48.9904V50.0373H59.4054V48.9904H58.3584ZM59.8379 48.9904V50.0373H60.8848V48.9904H59.8379ZM53.2555 50.2786L58.5542 55.6V59.5922L51.2481 52.2861L53.2555 50.2786ZM65.9877 50.2786L67.9952 52.2861L60.6936 59.5922V55.6L65.9877 50.2786Z" fill="#DF5829"/>
</g>
<mask id="mask1_35_161" style="mask-type:luminance" maskUnits="userSpaceOnUse" x="34" y="33" width="26" height="31">
<path d="M34.7058 33.8365H59.7559V63.5525H34.7058V33.8365Z" fill="white"/>
</mask>
<g mask="url(#mask1_35_161)">
<path d="M59.9015 33.8365L64.2578 38.1928L69.7886 43.7281L71.7961 41.7161L65.3139 35.2385H75.3922L75.7063 35.5481L85.3932 45.2394L80.3586 50.2786L76.8352 46.7553L73.3119 50.2786L71.8006 48.7628L60.9712 37.9333V41.9483L65.6508 46.6324L67.7812 48.7582V48.7628L71.3045 52.2861L62.2003 61.3857L60.9712 62.6193L59.9015 63.689L58.8272 62.6193L57.498 61.2855L48.4985 52.2861L50.0098 50.7702L52.0218 48.7628V48.7582L53.5377 47.2469L54.1522 46.6278L58.8272 41.9528V37.9333L51.5257 45.2394L50.0144 46.7553L48.0023 48.7628L46.4911 50.2786L44.9752 48.7628L42.9632 46.7553L39.4444 50.2786L34.4053 45.2394L44.1012 35.5481L44.4153 35.2385H54.4891L48.0023 41.7161L50.0144 43.7281L56.3782 37.3598L57.8849 35.853L58.8272 34.9062L59.9015 33.8365ZM74.5 37.378H70.4851L74.8278 41.7161L71.3045 45.2394L73.3119 47.2515L76.8352 43.7281L80.3586 47.2515L82.366 45.2394L74.5 37.378ZM49.3133 37.378H45.2984L37.437 45.2394L39.4444 47.2515L42.9677 43.7281L46.4911 47.2515L48.4985 45.2394L44.9752 41.7161L49.3133 37.378ZM59.9015 43.9102L55.0444 48.7673L59.9015 53.6426L64.754 48.7673L59.9015 43.9102ZM61.1624 47.5155V48.5625H60.1154V47.5155H61.1624ZM59.6875 47.5155V48.5625H58.636V47.5155H59.6875ZM61.1624 48.9904V50.0373H60.1154V48.9904H61.1624ZM59.6875 48.9904V50.0373H58.636V48.9904H59.6875ZM66.2699 50.2786L60.9712 55.6V59.5922L68.2728 52.2861L66.2699 50.2786ZM53.5331 50.2786L51.5257 52.2861L58.8272 59.5922V55.6L53.5331 50.2786Z" fill="black"/>
</g>
</svg>
